# Blender v2.78 (sub 0) OBJ File: 'button.blend'
# www.blender.org
mtllib button.mtl
o Cube
v -0.423121 -0.091040 0.054489
v -0.397624 -0.065543 0.054489
v -0.397624 -0.091040 0.079985
v -0.423121 -0.091040 -0.333612
v -0.397624 -0.091040 -0.359109
v -0.397624 -0.065543 -0.333612
v -0.284515 -0.091040 -0.359109
v -0.259018 -0.091040 -0.333612
v -0.284515 -0.065543 -0.333612
v -0.284515 -0.091040 0.079985
v -0.284515 -0.065543 0.054489
v -0.259018 -0.091040 0.054489
v -0.397625 -0.333612 0.079985
v -0.397625 -0.359109 0.054488
v -0.423121 -0.333612 0.054488
v -0.397624 -0.333612 -0.359109
v -0.423121 -0.333612 -0.333612
v -0.397624 -0.359109 -0.333612
v -0.259018 -0.333612 -0.333612
v -0.284515 -0.333612 -0.359109
v -0.284515 -0.359109 -0.333612
v -0.259018 -0.333612 0.054489
v -0.284515 -0.359109 0.054489
v -0.284515 -0.333612 0.079985
vn 0.0000 0.0000 -1.0000
vn -0.0000 -0.0000 1.0000
vn -1.0000 -0.0000 -0.0000
vn 0.0000 1.0000 0.0000
vn 1.0000 0.0000 0.0000
vn 0.5774 -0.5774 -0.5773
vn 0.5774 -0.5774 0.5773
vn -0.5774 -0.5773 0.5774
vn -0.5774 -0.5774 -0.5774
vn 0.5774 0.5773 -0.5774
vn 0.5773 0.5774 0.5773
vn -0.5774 0.5773 0.5774
vn -0.5773 0.5774 -0.5774
vn 0.7071 -0.7071 0.0000
vn 0.0000 -0.7071 -0.7071
vn 0.7071 0.0000 -0.7071
vn -0.0000 -0.7071 0.7071
vn 0.7071 0.0000 0.7071
vn -0.7071 -0.7071 -0.0000
vn -0.7071 -0.0000 0.7071
vn -0.7071 0.0000 -0.7071
vn 0.7071 0.7071 0.0000
vn 0.0000 0.7071 -0.7071
vn -0.0000 0.7071 0.7071
vn -0.7071 0.7071 -0.0000
vn 0.0000 -1.0000 0.0000
usemtl Material
s off
f 13//1 3//1 10//1 24//1
f 5//2 16//2 20//2 7//2
f 8//3 19//3 22//3 12//3
f 14//4 23//4 21//4 18//4
f 1//5 15//5 17//5 4//5
f 1//6 2//6 3//6
f 4//7 5//7 6//7
f 7//8 8//8 9//8
f 10//9 11//9 12//9
f 13//10 14//10 15//10
f 16//11 17//11 18//11
f 19//12 20//12 21//12
f 22//13 23//13 24//13
f 1//14 4//14 6//14 2//14
f 2//15 11//15 10//15 3//15
f 3//16 13//16 15//16 1//16
f 5//17 7//17 9//17 6//17
f 4//18 17//18 16//18 5//18
f 8//19 12//19 11//19 9//19
f 7//20 20//20 19//20 8//20
f 12//21 22//21 24//21 10//21
f 14//22 18//22 17//22 15//22
f 13//23 24//23 23//23 14//23
f 18//24 21//24 20//24 16//24
f 21//25 23//25 22//25 19//25
f 2//26 6//26 9//26 11//26
